<svg width="109" height="104" viewBox="0 0 109 104" fill="none" xmlns="http://www.w3.org/2000/svg">
<path d="M91.7693 45.7799C86.7493 48.0999 80.9893 49.1799 76.5393 52.3599C67.7993 58.5399 68.3793 65.7799 62.6893 68.6299C62.6893 68.6299 49.4093 75.7899 37.4993 76.2699C35.9793 76.4399 35.0493 76.3899 34.6093 77.7799C34.6093 77.7799 33.0893 79.4799 46.6993 80.1899C43.9493 81.75 45.1393 83.2399 46.3793 83.7999C49.4193 85.13 54.2693 84.7799 58.8893 82.3999C61.6293 80.9899 64.1993 79.0199 66.0093 76.1099C62.9193 77.4799 59.7193 78.8699 56.7093 78.1299C55.5093 77.8299 55.7493 75.5799 58.8993 74.7999C63.5493 73.6499 68.4693 73.1299 72.6893 70.6099C76.9993 68.0199 79.4993 64.3199 79.4293 62.3599C77.5993 64.6799 75.2693 65.7299 74.4993 64.5399C73.3093 62.7499 74.4293 57.2999 77.8093 54.3299C81.9093 50.7099 82.6993 53.7799 81.3393 57.0399C83.2893 55.3799 84.2793 51.8499 86.7493 50.3899C91.7093 47.4799 96.7793 44.7199 100.189 39.6799C100.309 39.6599 100.529 40.0799 100.429 40.5599C101.029 39.6499 101.749 37.0999 101.749 36.3199C99.4793 40.3699 96.0593 43.7899 91.7993 45.7699" fill="#CDA050"/>
<path d="M23.24 43.91C23.62 43.39 23.62 42.91 23.53 42.38C23.15 40.26 22.79 38.14 22.35 36.03C21.86 33.71 21.28 31.4 21.57 29.01C21.68 28.11 21.9 27.16 22.32 26.37C22.86 25.35 23.65 24.45 24.36 23.48C24.2 23.58 24.04 23.65 23.92 23.75C21.15 25.98 18.38 28.21 15.63 30.47C15.05 30.95 14.34 31.45 14.08 32.1C13.4 33.77 12.92 35.53 12.39 37.26C11.82 39.13 12.17 41.08 12 42.98C12 43.07 12.04 43.16 12.05 43.2C12.49 42.71 12.92 42.23 13.35 41.75C13.41 41.78 13.47 41.8 13.54 41.83C13.54 42.33 13.52 42.83 13.54 43.32C13.72 47.13 14.26 50.89 15.12 54.61C15.88 57.91 16.93 61.1 18.85 63.93C19.15 64.37 19.45 64.81 19.76 65.25C19.8 65.23 19.84 65.2 19.88 65.18C19.78 64.43 19.65 63.69 19.59 62.94C19.54 62.29 19.59 61.63 19.56 60.98C19.43 57.76 19.47 54.54 20.08 51.37C20.6 48.68 21.62 46.16 23.24 43.92" fill="#CDA050"/>
<path d="M19.1396 69.34C19.1396 69.06 18.9796 68.78 18.8796 68.5C18.3296 67.03 17.8196 65.54 17.1996 64.11C16.9196 63.47 16.3596 62.95 16.0396 62.32C14.3696 59.03 13.1996 55.53 11.8996 52.09C11.7296 51.64 11.4996 51.21 11.2996 50.76C11.2396 50.77 11.1796 50.79 11.1196 50.8C10.7796 52.3 10.5496 53.83 10.0796 55.29C9.11962 58.29 9.29962 61.27 10.1396 64.21C10.5596 65.7 11.2896 67.09 11.8296 68.55C11.9496 68.89 11.8696 69.3 11.8896 69.69C11.5196 69.66 11.1396 69.65 10.7696 69.6C10.6596 69.58 10.5596 69.47 10.4596 69.39C10.2296 69.2 9.99962 69 9.76962 68.8C9.71962 68.83 9.66962 68.86 9.62962 68.89C9.65962 69.07 9.64962 69.27 9.71962 69.43C10.1396 70.46 10.5396 71.51 11.0096 72.52C12.1396 74.94 13.8096 77.07 14.7096 79.62C14.9496 80.31 15.1196 80.32 15.7896 79.95C17.2796 79.12 18.2796 77.83 19.0596 76.36C19.1496 76.19 19.0596 75.71 18.9596 75.67C18.1396 75.38 18.0496 74.72 18.0496 74.03C18.0496 72.78 18.3596 71.62 18.9696 70.52C19.1496 70.19 19.1496 69.73 19.1396 69.34Z" fill="#CDA050"/>
<path d="M34.3591 23C34.1991 22.49 34.1491 21.94 33.9391 21.46C33.7191 20.96 33.4691 20.38 33.0691 20.09C32.2691 19.51 31.3391 19.11 30.4791 18.63C30.0991 18.41 29.7391 18.13 29.3391 17.94C28.9291 17.75 28.4491 18.01 28.4591 18.38C28.4891 19.09 28.5291 19.8 28.6091 20.51C28.7291 21.62 28.8691 22.73 29.0491 23.83C29.2191 24.84 29.5191 25.77 30.5391 26.2C31.0591 26.42 31.5491 26.7 32.0291 26.99C32.2591 27.13 32.4791 27.34 32.6191 27.58C33.2791 28.65 33.6991 29.81 33.9691 31.06C34.0391 31.4 34.3091 31.89 34.5691 31.96C35.2391 32.14 35.9591 32.13 36.6591 32.16C36.8291 32.16 37.0091 32.03 37.1991 31.96C36.8891 30.94 36.6291 29.98 36.3191 29.03C35.6691 27.02 35.0091 25.02 34.3591 23.01" fill="#CDA050"/>
<path d="M47.3502 32.6699C47.6202 32.6299 47.9402 32.18 48.0502 31.85C48.4502 30.64 49.0102 29.53 49.7802 28.54C49.9502 28.32 50.1902 28.14 50.4302 28.02C50.9402 27.78 51.4602 27.56 52.0002 27.4C53.0702 27.08 53.4702 26.19 53.7502 25.21C54.0502 24.14 54.3102 23.05 54.5602 21.96C54.7202 21.27 54.8302 20.56 54.9402 19.86C55.0002 19.49 54.5502 19.18 54.1202 19.32C53.7002 19.46 53.3202 19.7 52.9102 19.88C51.9902 20.27 51.0302 20.56 50.1702 21.04C49.7402 21.28 49.4202 21.83 49.1502 22.31C48.8902 22.76 48.7802 23.31 48.5602 23.8C47.7002 25.73 46.8102 27.64 45.9402 29.56C45.5302 30.47 45.1602 31.3899 44.7402 32.37C44.9202 32.47 45.0802 32.62 45.2502 32.63C45.9502 32.68 46.6602 32.7699 47.3402 32.6699" fill="#CDA050"/>
<path d="M29.13 15.33C29.13 15.33 28.7 15.79 29.37 16.28C30.04 16.76 34.11 19.59 34.11 19.59C34.11 19.59 34.58 19.9 34.95 21.1C35.32 22.3 37.58 30.21 37.58 30.21L37.61 30.3C37.86 31.66 39.23 32.75 40.95 32.85C42.66 32.95 44.14 32 44.54 30.68L44.57 30.6C44.57 30.6 47.7 22.99 48.2 21.84C48.7 20.69 49.21 20.44 49.21 20.44C49.21 20.44 53.57 18.09 54.28 17.68C55 17.27 54.62 16.77 54.62 16.77L51.53 11.48L54.75 7.71999L48.97 5.55C48.97 5.55 46.6 4.77 43.26 8.35C42.72 9.29 42.22 10.73 42.17 10.86C42.14 10.73 41.8 9.23999 41.37 8.23999C38.45 4.30999 36.01 4.81999 36.01 4.81999L30.02 6.34L32.8 10.43L29.14 15.35L29.13 15.33Z" fill="#CDA050"/>
<path d="M41.7793 33.92C41.4993 34.06 41.2393 34.12 40.9893 34.1C40.7293 34.1 40.4793 34.01 40.2193 33.83C39.3393 33.24 38.3693 33.08 37.3393 33.1C35.7793 33.13 34.2093 33.14 32.5293 33.16C32.8493 33.61 33.0093 34.08 33.6793 34.03C33.9993 33.98 34.3293 33.96 34.6793 33.98C36.3493 34.07 37.6593 35.03 37.5993 36.12C37.5593 36.84 36.9293 37.43 36.0293 37.73H36.0493C35.5793 37.87 35.2293 38.28 35.1993 38.77C35.1693 39.38 35.6293 39.91 36.2693 40.02H36.2893C37.5993 40.22 39.0693 40.38 40.6293 40.47H40.6493C42.2093 40.56 43.6893 40.57 45.0193 40.51H45.0393C45.6793 40.48 46.2093 40.01 46.2393 39.39C46.2693 38.9 45.9693 38.45 45.5193 38.25H45.5393C44.6793 37.87 44.1193 37.21 44.1593 36.49C44.2193 35.4 45.6293 34.59 47.2993 34.69C47.6493 34.71 47.9793 34.77 48.2893 34.85C48.9493 34.97 49.1593 34.52 49.5293 34.11C47.8593 33.9 46.3093 33.72 44.7593 33.52C43.7393 33.39 42.7493 33.44 41.8193 33.93" fill="#CDA050"/>
<path d="M54.1394 12.19C54.3394 14.18 56.0994 15.69 58.2294 15.69C58.3794 15.69 58.5294 15.69 58.6694 15.67C59.4494 15.59 60.1994 15.31 60.8194 14.86L60.8794 14.81C61.9194 14.01 63.2194 13.62 64.8494 13.62C66.6694 13.62 68.7194 14.1 70.6994 14.57C72.6894 15.04 74.7494 15.53 76.6394 15.55H76.7294C79.0394 15.55 83.1294 14.59 84.5994 8.19005L85.3794 4.80005L83.6994 7.85005C82.2394 10.5 80.2894 11.91 78.0694 11.91C77.8294 11.91 77.5794 11.89 77.3294 11.86C75.4894 11.6 73.4594 10.7 71.2994 9.74005C68.2394 8.38005 65.0694 6.97005 61.7094 6.97005C59.6394 6.97005 57.7594 7.50005 55.9794 8.59005L55.8794 8.65005C54.6694 9.47005 53.9994 10.84 54.1394 12.22" fill="#CDA050"/>
<path d="M8.92 11.73C10.4 11.73 11.98 11.54 13.5 11.36C15 11.18 16.55 10.99 17.97 10.99C20.36 10.99 22.03 11.53 23.23 12.69L23.29 12.75C23.86 13.27 24.57 13.63 25.34 13.8C25.65 13.87 25.96 13.9 26.27 13.9C28.22 13.9 29.85 12.65 30.23 10.85C30.52 9.49 30.01 8.06 28.9 7.11L28.82 7.06C26.78 5.49 24.51 4.72 21.87 4.72C18.99 4.72 16.17 5.61 13.44 6.48C11.19 7.19 9.07 7.86 7.21 7.92C4.7 7.99 2.6 6.32 1.32 3.23L0 0L0.4 3.46C1.15 10.05 5.17 11.43 7.49 11.67C7.93 11.71 8.41 11.74 8.92 11.74" fill="#CDA050"/>
<path d="M22.1403 20.11C22.5003 20.09 23.0803 20 23.4403 19.99C24.7003 19.58 24.4703 19.65 25.7303 19.24L27.7303 15.06C27.0403 15.37 25.4303 15.42 24.5303 15.36C22.9703 15.27 21.1203 14.81 19.6203 15.04C17.4103 15.38 17.6203 16.31 14.0903 17.06C13.2603 17.36 13.1203 17.9 14.1603 18.04C16.8303 18.83 19.3703 20.14 22.1403 20.11Z" fill="#CDA050"/>
<path d="M69.5699 21.15C70.6199 21.12 70.5299 20.57 69.7399 20.18C66.3099 19.03 66.6299 18.13 64.4699 17.55C63.0099 17.16 61.1099 17.41 59.5599 17.32C58.6599 17.27 57.0699 17.05 56.4199 16.66L57.9399 21.03C59.1499 21.58 58.9299 21.48 60.1299 22.04C60.4799 22.1 61.0499 22.25 61.3999 22.31C64.1499 22.66 66.8199 21.64 69.5599 21.15" fill="#CDA050"/>
<path d="M74.4298 32.85C73.7298 34.21 72.8098 35.36 71.5498 36.21C71.1198 36.5 70.6098 36.66 70.1598 36.88C69.3598 35.97 69.3798 35.21 70.1598 34.15C71.4798 32.34 73.2598 31.09 75.1898 30.04C75.5698 29.83 75.9698 29.65 76.5298 29.37C75.7598 30.63 75.0298 31.71 74.4298 32.86M108.05 19.36C106.16 19.68 104.38 20.32 102.66 21.16C101.72 21.62 100.74 22.08 99.9498 22.74C98.8898 23.62 97.9898 24.69 97.0298 25.69C95.8198 26.95 94.7398 28.37 93.3898 29.45C90.9598 31.4 88.1498 32.74 85.1198 33.5C83.8198 33.83 82.4498 33.87 81.1098 33.97C80.6298 34.01 80.0498 33.86 79.9998 33.26C79.8598 31.65 80.3398 30.15 81.5998 29.19C83.9998 27.37 86.7698 26.37 89.8198 26.29C90.3998 26.27 90.8898 26.15 91.3098 25.75C92.2498 24.85 93.2098 23.97 94.1598 23.07C94.2498 22.99 94.2798 22.85 94.4098 22.62C91.3498 24.03 88.3698 25.06 85.0798 23.76C85.2098 23.5 85.3398 23.26 85.4698 23.01C85.4398 22.96 85.4098 22.91 85.3898 22.86C84.6198 23.16 83.8498 23.47 83.0698 23.74C81.7298 24.2 80.7498 25.27 79.3598 25.72C78.0998 26.12 76.9698 26.94 75.7898 27.57C73.8298 28.61 71.7498 29.2 69.5198 29.04C68.6698 28.98 67.8198 28.76 66.9998 28.51C66.4598 28.35 66.4298 27.95 66.8498 27.55C66.9698 27.44 67.1198 27.35 67.2598 27.26C68.7298 26.37 70.4198 26.11 72.0498 25.73C73.5998 25.37 75.1398 25.02 76.4398 24.04C77.1598 23.5 77.6898 22.84 77.8298 21.88C77.7198 21.9 77.6798 21.9 77.6398 21.92C77.5698 21.96 77.4998 22.01 77.4398 22.07C76.1898 23.21 74.7198 23.96 73.0298 24.05C71.4298 24.14 69.8198 24.11 68.2098 24.03C67.5098 23.99 66.7798 23.79 66.1498 23.48C65.5398 23.18 65.0098 23.24 64.4598 23.48C62.8598 24.18 61.4198 25.1 60.3698 26.55C60.0698 26.96 60.0198 27.24 60.5098 27.51C62.6098 28.66 64.1698 30.42 65.5198 32.32C67.9498 35.74 70.2098 39.29 71.7998 43.21C71.8198 43.26 71.8898 43.28 71.9798 43.34C72.0598 43.24 72.1398 43.15 72.2098 43.06C72.2598 42.99 72.3298 42.93 72.3498 42.85C72.7498 41.54 73.8498 40.97 74.9498 40.43C77.3898 39.24 80.0298 38.74 82.7098 38.45C85.9898 38.1 88.9898 37.02 91.7498 35.25C92.5998 34.7 93.4198 34.1 94.3698 33.45C94.2698 33.62 94.2398 33.7 94.1898 33.74C92.8198 34.98 91.5398 36.33 90.0698 37.43C88.3198 38.74 86.4198 39.85 84.5998 41.06C84.4298 41.17 84.2998 41.33 84.1498 41.47C84.1898 41.55 84.2298 41.64 84.2698 41.72C85.1998 41.5 86.1598 41.35 87.0698 41.04C87.9598 40.74 88.7998 40.28 89.6698 39.89C89.6998 39.94 89.7398 39.98 89.7698 40.03C89.1598 40.53 88.5898 41.1 87.9198 41.52C86.2798 42.56 84.3798 42.8 82.5098 43.12C82.0098 43.2 81.4598 43.14 81.0098 43.32C79.1198 44.08 77.2298 44.87 75.3898 45.74C74.1598 46.32 73.3198 47.29 73.1198 48.72C73.0398 49.28 72.6598 51.64 72.4098 52.14C72.4098 52.14 77.7498 49.42 80.5798 48.25C83.4098 47.08 84.9498 46.6 84.9498 46.6C85.0198 46.62 85.1198 46.6 85.1998 46.57C86.3198 46.15 87.4598 45.76 88.5598 45.28C90.7998 44.31 92.8098 42.96 94.6898 41.43C97.3098 39.3 99.6698 36.94 101.1 33.81C101.34 33.29 101.75 32.82 101.57 32.16C101.18 30.74 101.41 29.33 101.83 27.97C102.18 26.83 102.68 25.72 103.22 24.65C104.09 22.91 105.3 21.43 107.01 20.44C107.6 20.1 108.21 19.8 108.81 19.48C108.56 19.33 108.33 19.3 108.1 19.34" fill="#CDA050"/>
<path d="M29.4103 51.95C32.5303 46.96 41.2103 42.56 41.2103 42.56C39.2703 42.35 37.4303 42.18 35.5903 41.95C34.7803 41.85 34.0803 41.27 33.8403 40.62C32.8103 37.8 31.5103 35.12 30.0003 32.53C28.8403 30.53 27.6603 28.53 26.5003 26.53C26.2803 26.15 26.0903 25.68 25.8503 25.24C24.5203 27.15 24.5103 30.55 24.5103 30.55C24.5103 30.55 25.5303 36.64 25.9803 38.65C26.4303 40.66 25.8103 41.32 25.8103 41.32C25.8103 41.32 24.8603 43.79 21.6303 52.13C18.4703 63.32 23.3303 70.86 23.3303 70.86C23.3303 70.86 25.7503 56.2 29.4003 51.95" fill="#CDA050"/>
<path d="M45.7097 73.13C47.5297 72.2 53.6497 66.69 56.6397 62.48C59.6397 58.27 59.3497 51.24 59.3497 51.24C47.7497 60.98 27.1697 67.73 27.1697 67.73L27.1397 67.78C27.0197 67.88 26.5197 69.94 26.4897 70.09C26.2997 70.87 26.1597 71.66 25.9497 72.43C25.8897 72.66 25.7197 72.97 25.5197 73.05C23.8197 73.77 22.5297 75.08 21.0797 76.16C20.6797 76.45 20.5297 76.84 20.4997 77.35C20.4497 78.05 20.4297 78.84 20.0997 79.42C19.0497 81.31 17.5097 82.79 15.8297 84.12C14.1297 85.47 12.3597 86.72 11.0597 88.5C10.7797 88.89 10.4497 89.25 10.0797 89.55C9.54969 89.99 8.90969 90.3 8.41969 90.78C6.89969 92.28 5.87969 94.13 4.88969 95.99C4.36969 96.97 3.93969 98.01 3.51969 99.04C3.30969 99.55 3.41969 100 3.95969 100.32C4.85969 100.86 5.71969 101.47 6.62969 102C7.21969 102.34 7.85969 102.59 8.39969 102.84L10.1997 103.19C10.5697 103.13 10.8797 103.11 11.1597 103.02C12.9797 102.43 14.8497 101.93 16.6097 101.18C18.5797 100.34 18.4597 100.91 18.6497 98.4C18.7497 97.06 18.9997 95.72 19.1297 94.38C19.1997 93.63 19.3797 92.78 19.1097 92.14C18.8697 91.57 18.8697 91.18 19.1797 90.78C19.8397 89.94 20.4997 89.1 21.2597 88.36C22.4497 87.2 23.6397 86.03 24.9597 85.04C26.7997 83.68 28.7497 82.48 30.6697 81.23C31.0697 80.97 31.2897 80.73 31.1097 80.23C30.8497 79.5 31.0897 78.98 31.6897 78.43C32.4597 77.73 33.0297 76.82 33.6997 76.02C33.8197 75.87 33.9797 75.71 34.1597 75.64L34.7697 75.45C37.3997 75.08 43.8797 74.07 45.6997 73.14" fill="#CDA050"/>
<path d="M57.3893 25.58L57.1193 25.85C56.8693 26.28 56.6593 26.67 56.4293 27.05C55.1993 29.01 53.9593 30.97 52.7293 32.93C51.5693 34.78 50.5193 36.68 49.5993 38.65C49.2593 39.38 48.9393 40.13 48.6293 40.89C48.3693 41.53 47.6493 42.09 46.8393 42.16C46.5593 42.18 46.2793 42.21 45.9993 42.23H45.6393C45.6393 42.23 36.3893 46.06 32.7693 50.81C29.9693 53.5 27.4193 61 26.0593 65.57C26.0593 65.57 25.9993 66.22 26.9793 65.63C27.0993 65.56 27.2993 65.43 27.5693 65.26L27.6493 65.24C31.3793 63.95 49.3993 57.45 59.6693 48.55L61.0493 51.71L61.1193 51.62C61.5993 49.95 62.0693 47.79 62.1393 47.18C62.2793 46.03 64.2193 38.83 57.3893 25.54V25.57V25.58Z" fill="#CDA050"/>
<path d="M50.2402 71.21C50.2402 71.21 50.6902 72.92 61.5102 66.91C65.3002 64.8 65.0802 62.98 67.4102 59.69C71.2202 54.29 70.9502 49.72 70.9502 49.72C70.1002 37.76 62.0802 31.5 62.0802 31.5C62.0802 31.5 65.9702 43.52 63.4802 53.24C60.9902 62.96 50.2402 71.22 50.2402 71.22" fill="#CDA050"/>
</svg>
